<svg width="215" height="64" viewBox="0 0 215 64" fill="none" xmlns="http://www.w3.org/2000/svg">
<path d="M206.304 18.9224C209.041 19.8627 211.427 21.691 213.123 24.1467C211.429 26.6055 209.043 28.4372 206.306 29.3807C204.766 27.1378 202.643 25.4142 200.195 24.4188C199.959 24.3221 199.721 24.2329 199.482 24.1513C202.221 23.2086 204.608 21.3781 206.304 18.9203V18.9224ZM206.304 18.9224C203.81 18.0641 201.134 17.9875 198.6 18.702C198.356 18.771 198.114 18.8463 197.875 18.9278C199.565 16.4655 200.476 13.5036 200.48 10.4631M206.304 18.9224C207.993 16.4603 208.903 13.4982 208.905 10.458C206.166 9.52361 203.218 9.52537 200.48 10.4631M200.48 10.4631C197.985 11.3162 195.777 12.9151 194.124 15.0659C193.964 15.2739 193.811 15.4849 193.664 15.6987C193.66 12.6579 192.749 9.69554 191.059 7.23275M200.48 10.4631C200.476 7.42249 199.564 4.46081 197.872 2C195.136 2.94395 192.752 4.7751 191.059 7.23275M191.059 7.23275C189.515 9.47181 188.619 12.135 188.479 14.9006C188.466 15.1684 188.459 15.4347 188.459 15.6996C186.764 13.2413 184.377 11.4102 181.639 10.4669M191.059 7.23275C189.363 4.77551 186.976 2.94605 184.238 2.00505C182.55 4.46662 181.641 7.42779 181.639 10.4669M181.639 10.4669C178.899 9.53106 175.949 9.53224 173.21 10.4702C173.215 13.5091 174.127 16.4689 175.818 18.9282M181.639 10.4669C181.637 13.2362 182.395 15.9465 183.821 18.2706C183.959 18.4951 184.102 18.7144 184.249 18.9282C181.508 17.9926 178.558 17.9926 175.818 18.9282M175.818 18.9282C173.08 19.8712 170.694 21.7029 169 24.1622C170.696 26.6181 173.083 28.4463 175.82 29.3866C177.516 26.9288 179.903 25.0982 182.641 24.1556C182.403 24.0734 182.165 23.9842 181.929 23.8881C179.48 22.8932 177.358 21.1704 175.818 18.9282Z" stroke="#7F0019" stroke-width="2" stroke-miterlimit="10"/>
<path fill-rule="evenodd" clip-rule="evenodd" d="M194.375 28.5147H194.374C194.325 30.4267 192.759 31.9616 190.835 31.9616C188.911 31.9616 187.346 30.4267 187.296 28.5147H187.295V28.4216V23.4342L187.295 23.4173C187.295 21.4622 188.88 19.8773 190.835 19.8773C192.79 19.8773 194.375 21.4621 194.375 23.417H194.375V28.4216V28.5147ZM184.874 30.2063C184.261 27.7784 184.567 25.654 184.567 25.654C184.567 25.654 182.197 31.3255 185.026 35.4273C185.073 35.4944 185.119 35.562 185.167 35.63C185.377 35.9055 185.624 36.1921 185.898 36.4746C186.196 36.7821 186.494 37.0518 186.775 37.2734C187.73 37.9191 188.584 38.5577 188.709 38.9328C188.957 39.6795 189.248 39.9176 189.312 39.9504C189.376 39.9833 189.66 40.0408 189.618 39.7537C189.575 39.4665 189.568 39.2861 189.661 39.2451C189.735 39.2123 189.975 39.5543 190.087 39.7293C190.633 40.364 191.921 41.8042 192.699 42.4872C193.477 43.1701 194.273 44.2983 194.573 44.777C194.72 45.0587 195.029 45.7009 195.091 46.016C195.154 46.331 195.179 46.6505 195.184 46.7708C195.21 46.902 195.286 47.1416 195.382 47.0498C195.479 46.958 195.555 46.6671 195.581 46.5331C195.596 46.3636 195.643 46.0163 195.717 45.9835C195.79 45.9507 195.885 46.2762 195.922 46.443C196.109 46.9518 196.531 48.0824 196.724 48.5354C196.965 49.1016 197.334 50.5292 197.369 51.4316C197.397 52.1535 197.409 52.9848 197.411 53.3103C197.413 53.3704 197.488 53.5088 197.766 53.5812C198.045 53.6535 197.91 54.3332 197.808 54.6641C197.807 55.0226 197.803 55.6643 197.797 56.4392C197.92 57.9749 197.829 59.5157 197.665 60.8472C197.545 62.1395 197.345 63.3402 197.229 63.9174C197.224 63.9411 197.219 63.9691 197.214 64C198.14 61.6607 200.768 54.5229 200.234 50.0326C199.353 42.6293 194.148 38.712 189.928 35.5362C188.868 34.7389 187.871 33.9884 187.02 33.2412C186.971 33.1983 186.914 33.1507 186.852 33.098C186.297 32.6314 185.267 31.7646 184.874 30.2063ZM195.802 62.1884C195.795 62.0309 195.74 61.6595 195.582 61.4342C195.424 61.2089 195.391 60.8907 195.394 60.7597C195.408 60.6553 195.473 60.4359 195.624 60.3935C195.775 60.3512 195.785 60.0644 195.771 59.9264C195.87 58.645 195.936 55.6297 195.408 53.8196C195.323 53.5278 195.243 53.2472 195.167 52.9761L195.166 52.9752L195.166 52.9749C194.649 51.1443 194.253 49.7397 192.957 48.1571C191.766 46.7032 190.405 45.7158 189.874 45.4038C190.727 46.2701 192.563 48.2428 193.085 49.2033C193.737 50.4039 194.508 52.3161 194.764 53.681C194.969 54.7729 195.084 56.6602 195.116 57.4673C194.967 57.03 194.582 55.9992 194.23 55.3744C193.877 54.7496 193.238 53.9204 192.962 53.5838C192.935 53.5502 192.903 53.4797 192.999 53.467C193.095 53.4544 193.186 53.4796 193.22 53.4938C193.287 53.5222 193.429 53.5556 193.459 53.4621C193.496 53.3454 193.381 53.1647 193.266 52.9841C193.207 52.8921 192.819 52.5752 192.412 52.2436C192.02 51.9241 191.611 51.591 191.465 51.432C191.41 51.3727 191.342 51.3013 191.266 51.2214C190.927 50.8644 190.429 50.3402 190.257 49.9972C190.088 49.6615 190.349 49.7052 190.5 49.7691C190.608 49.7922 190.84 49.8193 190.91 49.7429C190.98 49.6665 190.954 49.5412 190.933 49.4881C190.68 49.1391 189.987 48.3095 189.238 47.7821C188.488 47.2546 187.259 46.067 186.738 45.539C186.666 45.4646 186.509 45.284 186.458 45.1565C186.407 45.029 186.608 45.0433 186.715 45.0664C186.84 45.0966 187.102 45.1496 187.157 45.1199C187.226 45.0828 187.212 44.9448 186.927 44.7586C186.883 44.7296 186.831 44.6993 186.773 44.665C186.461 44.4799 185.949 44.1773 185.209 43.3075C184.431 42.3934 183.967 41.1958 183.738 40.6028C183.709 40.527 183.683 40.4611 183.661 40.4069C183.507 40.0245 183.304 38.757 183.222 38.171C183.153 37.7232 183.03 36.7807 183.089 36.5939C183.148 36.407 183.343 36.8773 183.434 37.1358C183.626 37.6139 184.183 38.6816 184.867 39.1283C185.131 39.3007 185.551 39.5325 186.012 39.787L186.012 39.787L186.012 39.7871C187.044 40.3567 188.282 41.0399 188.437 41.4254C188.662 41.9831 188.897 42.1479 188.947 42.1692C188.998 42.1905 189.218 42.2172 189.172 41.9995C189.127 41.7818 189.113 41.6437 189.182 41.6066C189.237 41.5769 189.438 41.8245 189.531 41.952C189.98 42.4055 191.034 43.4317 191.663 43.908C192.292 44.3843 192.954 45.2012 193.207 45.5501C193.332 45.7573 193.599 46.2312 193.661 46.4692C193.723 46.7071 193.757 46.9507 193.766 47.0427C193.792 47.1419 193.862 47.321 193.932 47.2446C194.002 47.1682 194.047 46.9403 194.061 46.8359C194.064 46.7049 194.084 46.4356 194.139 46.4059C194.194 46.3762 194.282 46.6202 194.318 46.7459C194.485 47.1248 194.861 47.9666 195.03 48.3023C195.241 48.722 195.59 49.7949 195.658 50.4852C195.713 51.0375 195.76 51.6748 195.777 51.9243C195.781 51.9704 195.845 52.072 196.062 52.1104C196.279 52.1489 196.207 52.6787 196.144 52.9389C196.176 53.5035 196.255 54.9833 196.316 56.3851C196.378 57.787 196.215 59.4294 196.125 60.0754C196.105 60.1992 196.092 60.4714 196.199 60.5692C196.332 60.6915 196.203 61.1002 196.184 61.1586C196.177 61.1828 196.126 61.2798 196.068 61.3935C195.984 61.5543 195.884 61.7484 195.862 61.8168C195.833 61.9102 195.81 62.1035 195.802 62.1884ZM197.781 26.312C197.781 26.312 197.321 28.1504 196.402 30.2187L196.402 30.2187C195.673 31.8589 195.483 32.287 194.626 33.2412C193.872 34.0807 192.941 34.8835 191.923 35.7033C192.783 36.4171 193.687 37.2543 194.592 38.1896C195.346 37.1998 196.034 36.2764 196.619 35.4273C199.449 31.3256 197.781 26.312 197.781 26.312Z" fill="#7F0019"/>
<path d="M31 27.8333C36.7069 27.8333 41.3333 23.2069 41.3333 17.5C41.3333 11.793 36.7069 7.16663 31 7.16663C25.2931 7.16663 20.6667 11.793 20.6667 17.5C20.6667 23.2069 25.2931 27.8333 31 27.8333Z" stroke="#7F0019" stroke-width="2.5"/>
<path d="M51.6615 48.4999C51.6667 48.0763 51.6667 47.6448 51.6667 47.2083C51.6667 40.7887 42.4132 35.5833 31 35.5833C19.5868 35.5833 10.3333 40.7887 10.3333 47.2083C10.3333 53.6278 10.3333 58.8332 31 58.8332C36.7634 58.8332 40.92 58.4277 43.9167 57.7043" stroke="#7F0019" stroke-width="2.5" stroke-linecap="round"/>
<path d="M91 24H133M133 24L126 30M133 24L126 18" stroke="#C2C9CD"/>
<path d="M133 43H91M91 43L98 49M91 43L98 37" stroke="#C2C9CD"/>
</svg>
