<svg width="27" height="27" viewBox="0 0 27 27" fill="none" xmlns="http://www.w3.org/2000/svg">
<path d="M4.87248 5.07977C4.70923 5.30833 4.70923 5.63233 4.70923 6.27907C4.70923 6.92582 4.70923 7.24982 4.87248 7.47838C4.92937 7.559 4.99941 7.62947 5.07969 7.68684C5.30825 7.84884 5.63225 7.84884 6.279 7.84884C6.92574 7.84884 7.24974 7.84884 7.4783 7.68558C7.55892 7.6287 7.6294 7.55866 7.68676 7.47838C7.84876 7.24982 7.84876 6.92582 7.84876 6.27907C7.84876 5.63233 7.84876 5.30833 7.68551 5.07977C7.62863 4.99915 7.55858 4.92867 7.4783 4.87131C7.24974 4.70931 6.92574 4.7093 6.279 4.7093C5.63225 4.7093 5.30825 4.7093 5.07969 4.87256C4.99907 4.92944 4.92985 4.99949 4.87248 5.07977Z" fill="#7F0019"/>
<path fill-rule="evenodd" clip-rule="evenodd" d="M9.36084 0.0502325C9.91717 0.102977 10.4346 0.218512 10.9093 0.508605C11.3739 0.793675 11.7645 1.18423 12.0495 1.64888C12.3396 2.12358 12.4552 2.64098 12.5079 3.1973C12.5581 3.72851 12.5581 4.38279 12.5581 5.16642V6.65833C12.5581 7.78605 12.5581 8.72791 12.4577 9.47386C12.3522 10.2625 12.1186 10.9746 11.546 11.546C10.9746 12.1186 10.2625 12.3522 9.47386 12.4577C8.72791 12.5581 7.78605 12.5581 6.65833 12.5581H5.16642C4.38279 12.5581 3.72851 12.5581 3.1973 12.5079C2.64098 12.4552 2.12358 12.3396 1.64888 12.0495C1.18413 11.7648 0.793387 11.374 0.508605 10.9093C0.218512 10.4346 0.102977 9.91717 0.0502325 9.36084C-4.67827e-08 8.82963 0 8.17535 0 7.39172V7.29879C0 6.10577 1.87131e-08 5.14382 0.0740931 4.36898C0.149442 3.57028 0.310186 2.87456 0.694465 2.24916C1.08241 1.61566 1.61472 1.08292 2.24791 0.694465C2.8733 0.310186 3.56902 0.149442 4.36772 0.0740931C5.14256 1.87131e-08 6.10451 0 7.29754 0H7.39047C8.1741 0 8.82837 -4.67827e-08 9.35958 0.0502325M9.18126 1.92516C8.75051 1.88498 8.18791 1.88372 7.34651 1.88372C6.09447 1.88372 5.22293 1.88372 4.5473 1.94902C3.88675 2.01181 3.51251 2.12861 3.23247 2.30065C2.85276 2.53347 2.53347 2.85276 2.30065 3.23247C2.12861 3.51251 2.01181 3.88675 1.94902 4.5473C1.88372 5.22419 1.88372 6.09447 1.88372 7.34651C1.88372 8.18791 1.88372 8.75051 1.92516 9.18251C1.96535 9.6007 2.03568 9.79535 2.11479 9.9247C2.24414 10.1357 2.42247 10.314 2.63344 10.4434C2.76279 10.5225 2.95744 10.5928 3.37437 10.6317C3.80763 10.6732 4.37149 10.6744 5.21163 10.6744H6.59303C7.80363 10.6744 8.6174 10.6719 9.22396 10.5903C9.80289 10.5124 10.0515 10.378 10.2148 10.2135C10.378 10.0503 10.5124 9.80289 10.5915 9.22396C10.6719 8.6174 10.6744 7.80363 10.6744 6.59303V5.21163C10.6744 4.37023 10.6744 3.80763 10.633 3.37563C10.5928 2.95744 10.5225 2.76279 10.4434 2.63344C10.3139 2.42203 10.1361 2.24429 9.9247 2.11479C9.79535 2.03568 9.6007 1.96535 9.18377 1.92642" fill="#7F0019"/>
<path d="M19.3144 5.07977C19.1511 5.30833 19.1511 5.63233 19.1511 6.27907C19.1511 6.92582 19.1511 7.24982 19.3144 7.47838C19.3713 7.559 19.4413 7.62947 19.5216 7.68684C19.7501 7.84884 20.0741 7.84884 20.7209 7.84884C21.3676 7.84884 21.6916 7.84884 21.9202 7.68558C22.0008 7.6287 22.0713 7.55866 22.1287 7.47838C22.2907 7.24982 22.2907 6.92582 22.2907 6.27907C22.2907 5.63233 22.2907 5.30833 22.1274 5.07977C22.0705 4.99916 22.0005 4.92869 21.9202 4.87131C21.6916 4.70931 21.3676 4.7093 20.7209 4.7093C20.0741 4.7093 19.7501 4.7093 19.5216 4.87256C19.441 4.92946 19.3718 4.99951 19.3144 5.07977Z" fill="#7F0019"/>
<path fill-rule="evenodd" clip-rule="evenodd" d="M19.6081 0H19.701C20.894 0 21.856 1.87131e-08 22.6308 0.0740931C23.4295 0.149442 24.1252 0.310186 24.7506 0.694465C25.3848 1.08251 25.9185 1.61498 26.3053 2.24916C26.6896 2.87456 26.8504 3.57028 26.9257 4.36898C26.9998 5.14382 26.9998 6.10577 26.9998 7.29879V7.39172C26.9998 8.17535 26.9998 8.82963 26.9496 9.36084C26.8968 9.91717 26.7813 10.4346 26.4912 10.9093C26.2061 11.3739 25.8156 11.7645 25.3509 12.0495C24.8762 12.3396 24.3588 12.4552 23.8025 12.5079C23.2713 12.5581 22.617 12.5581 21.8334 12.5581H20.3415C19.2125 12.5581 18.2719 12.5581 17.5259 12.4577C16.7373 12.3522 16.0252 12.1186 15.4538 11.546C14.8812 10.9746 14.6476 10.2625 14.5421 9.47386C14.4417 8.72791 14.4417 7.78605 14.4417 6.65833V5.16642C14.4417 4.38279 14.4417 3.72851 14.4919 3.1973C14.5446 2.64098 14.6602 2.12358 14.9503 1.64888C15.235 1.18413 15.6258 0.793387 16.0905 0.508605C16.5652 0.218512 17.0826 0.102977 17.639 0.0502325C18.1702 -4.67827e-08 18.8244 0 19.6081 0ZM17.8173 1.92516C17.3991 1.96535 17.2044 2.03568 17.0751 2.11479C16.8637 2.24429 16.6859 2.42203 16.5564 2.63344C16.4773 2.76279 16.407 2.95744 16.3681 3.37437C16.3266 3.80763 16.3254 4.37149 16.3254 5.21163V6.59303C16.3254 7.80363 16.3279 8.6174 16.4083 9.22396C16.4874 9.80289 16.6217 10.0515 16.785 10.2148C16.9483 10.378 17.1969 10.5124 17.7771 10.5915C18.3824 10.6719 19.1962 10.6744 20.4068 10.6744H21.7882C22.6296 10.6744 23.1922 10.6744 23.6242 10.633C24.0424 10.5928 24.237 10.5225 24.3664 10.4434C24.5778 10.3139 24.7555 10.1361 24.885 9.9247C24.9641 9.79535 25.0344 9.6007 25.0734 9.18377C25.1148 8.75051 25.1161 8.18665 25.1161 7.34651C25.1161 6.09447 25.1161 5.22293 25.0508 4.5473C24.988 3.88675 24.8712 3.51251 24.6991 3.23247C24.4663 2.85276 24.147 2.53347 23.7673 2.30065C23.4873 2.12861 23.113 2.01181 22.4525 1.94902C21.7769 1.88498 20.9053 1.88372 19.6533 1.88372C18.8119 1.88372 18.2493 1.88372 17.8173 1.92516Z" fill="#7F0019"/>
<path d="M4.70923 20.7209C4.70923 20.0742 4.70923 19.7502 4.87248 19.5216C4.92938 19.441 4.99943 19.3705 5.07969 19.3131C5.30825 19.1511 5.63225 19.1511 6.279 19.1511C6.92574 19.1511 7.24974 19.1511 7.4783 19.3144C7.55892 19.3713 7.6294 19.4413 7.68676 19.5216C7.84876 19.7502 7.84876 20.0742 7.84876 20.7209C7.84876 21.3677 7.84876 21.6917 7.68551 21.9202C7.62863 22.0008 7.55858 22.0713 7.4783 22.1287C7.24974 22.2907 6.92574 22.2907 6.279 22.2907C5.63225 22.2907 5.30825 22.2907 5.07969 22.1274C4.99908 22.0705 4.92861 22.0005 4.87123 21.9202C4.70923 21.6917 4.70923 21.3677 4.70923 20.7209Z" fill="#7F0019"/>
<path fill-rule="evenodd" clip-rule="evenodd" d="M9.47386 14.5423C10.2625 14.6478 10.9746 14.8814 11.546 15.454C12.1186 16.0254 12.3522 16.7375 12.4577 17.5261C12.5581 18.2721 12.5581 19.2127 12.5581 20.3416V21.8336C12.5581 22.6172 12.5581 23.2715 12.5079 23.8027C12.4552 24.3577 12.3396 24.8764 12.0495 25.3511C11.7645 25.8157 11.3739 26.2063 10.9093 26.4914C10.4346 26.7827 9.91717 26.897 9.36084 26.9497C8.82963 27 8.17535 27 7.39172 27H7.29879C6.10577 27 5.14382 27 4.36898 26.9259C3.57028 26.8505 2.87456 26.6898 2.24916 26.3055C1.61552 25.9172 1.08277 25.3845 0.694465 24.7508C0.310186 24.1254 0.149442 23.4297 0.0740931 22.631C1.87131e-08 21.8562 0 20.8942 0 19.7012V19.6083C0 18.8246 -4.67827e-08 18.1703 0.0502325 17.6391C0.102977 17.0841 0.218512 16.5654 0.508605 16.0907C0.793387 15.626 1.18413 15.2352 1.64888 14.9504C2.12358 14.6603 2.64098 14.5448 3.1973 14.4921C3.72851 14.4418 4.38279 14.4418 5.16642 14.4418H6.65833C7.78605 14.4418 8.72791 14.4418 9.47386 14.5423ZM9.2227 16.4084C8.6174 16.3281 7.80363 16.3256 6.59303 16.3256H5.21163C4.37023 16.3256 3.80763 16.3256 3.37563 16.3683C2.95744 16.4072 2.76279 16.4775 2.63344 16.5566C2.42203 16.6861 2.24429 16.8639 2.11479 17.0753C2.03568 17.2046 1.96535 17.3993 1.92642 17.8162C1.88498 18.2495 1.88372 18.8133 1.88372 19.6535C1.88372 20.9055 1.88372 21.777 1.94902 22.4527C2.01181 23.1132 2.12861 23.4875 2.30065 23.7675C2.53298 24.1468 2.85321 24.467 3.23247 24.6993C3.51251 24.8714 3.88675 24.9882 4.5473 25.051C5.22293 25.115 6.09447 25.1163 7.34651 25.1163C8.18791 25.1163 8.75051 25.1163 9.18251 25.0736C9.6007 25.0346 9.79535 24.9643 9.9247 24.8852C10.1361 24.7557 10.3139 24.5779 10.4434 24.3665C10.5225 24.2372 10.5928 24.0425 10.6317 23.6256C10.6732 23.1923 10.6744 22.6285 10.6744 21.7883V20.407C10.6744 19.1963 10.6719 18.3826 10.5903 17.776C10.5124 17.1971 10.378 16.9484 10.2135 16.7852C10.0503 16.6219 9.80289 16.4876 9.22396 16.4084" fill="#7F0019"/>
<path d="M16.0116 20.9059H18.9423C19.4605 20.9059 19.9575 20.7001 20.3239 20.3336C20.6903 19.9672 20.8961 19.4703 20.8961 18.9521V16.0214H16.0116V16.0116M24.8037 20.8961V20.9059V16.9983V16.0214M20.8961 24.8135H19.9192M16.0116 24.8135V24.8037" stroke="#7F0019" stroke-width="1.5558" stroke-linecap="round" stroke-linejoin="round"/>
</svg>
