<svg width="16" height="18" viewBox="0 0 16 18" fill="none" xmlns="http://www.w3.org/2000/svg">
<path d="M5.44444 8.99999C5.44444 9.58936 5.21032 10.1546 4.79357 10.5713C4.37682 10.9881 3.81159 11.2222 3.22222 11.2222C2.63285 11.2222 2.06762 10.9881 1.65087 10.5713C1.23413 10.1546 1 9.58936 1 8.99999C1 8.41062 1.23413 7.84539 1.65087 7.42864C2.06762 7.0119 2.63285 6.77777 3.22222 6.77777C3.81159 6.77777 4.37682 7.0119 4.79357 7.42864C5.21032 7.84539 5.44444 8.41062 5.44444 8.99999Z" fill="#7F0019" stroke="#7F0019" stroke-width="1.5"/>
<path d="M9.88878 4.11111L5.44434 7.22223M9.88878 13.8889L5.44434 10.7778" stroke="#7F0019" stroke-width="1.5" stroke-linecap="round"/>
<path d="M14.3334 14.7778C14.3334 15.3671 14.0992 15.9324 13.6825 16.3491C13.2657 16.7659 12.7005 17 12.1111 17C11.5218 17 10.9565 16.7659 10.5398 16.3491C10.123 15.9324 9.88892 15.3671 9.88892 14.7778C9.88892 14.1884 10.123 13.6232 10.5398 13.2064C10.9565 12.7897 11.5218 12.5556 12.1111 12.5556C12.7005 12.5556 13.2657 12.7897 13.6825 13.2064C14.0992 13.6232 14.3334 14.1884 14.3334 14.7778ZM14.3334 3.22222C14.3334 3.81159 14.0992 4.37682 13.6825 4.79357C13.2657 5.21032 12.7005 5.44444 12.1111 5.44444C11.5218 5.44444 10.9565 5.21032 10.5398 4.79357C10.123 4.37682 9.88892 3.81159 9.88892 3.22222C9.88892 2.63285 10.123 2.06762 10.5398 1.65087C10.9565 1.23413 11.5218 1 12.1111 1C12.7005 1 13.2657 1.23413 13.6825 1.65087C14.0992 2.06762 14.3334 2.63285 14.3334 3.22222Z" fill="#7F0019" stroke="#7F0019" stroke-width="1.5"/>
</svg>
