<svg width="15" height="18" viewBox="0 0 15 18" fill="none" xmlns="http://www.w3.org/2000/svg">
<path d="M7.39995 7.4C9.16726 7.4 10.6 5.96731 10.6 4.2C10.6 2.43269 9.16726 1 7.39995 1C5.63264 1 4.19995 2.43269 4.19995 4.2C4.19995 5.96731 5.63264 7.4 7.39995 7.4Z" fill="#7F0019" stroke="#7F0019" stroke-width="1.5"/>
<path d="M13.7984 13.8C13.8 13.6688 13.8 13.5352 13.8 13.4C13.8 11.412 10.9344 9.8 7.4 9.8C3.8656 9.8 1 11.412 1 13.4C1 15.388 1 17 7.4 17C9.1848 17 10.472 16.8744 11.4 16.6504" fill="#7F0019"/>
<path d="M13.7984 13.8C13.8 13.6688 13.8 13.5352 13.8 13.4C13.8 11.412 10.9344 9.8 7.4 9.8C3.8656 9.8 1 11.412 1 13.4C1 15.388 1 17 7.4 17C9.1848 17 10.472 16.8744 11.4 16.6504" stroke="#7F0019" stroke-width="1.5" stroke-linecap="round"/>
</svg>
