<svg width="25" height="25" viewBox="0 0 25 25" fill="none" xmlns="http://www.w3.org/2000/svg">
<path d="M10.9632 24.1201C6.91201 23.5895 3.51073 20.9897 1.85711 17.4151H7.96281C8.24791 18.4119 8.59525 19.3665 8.9687 20.2529C9.60261 21.7573 10.3211 23.0872 10.9632 24.1201ZM10.4063 19.6471C10.1066 18.9358 9.82857 18.187 9.59026 17.4151H15.5902C14.8347 20.3084 13.5476 22.4967 12.5701 23.7383C11.9118 22.7353 11.1061 21.3081 10.4063 19.6471ZM15.9297 15.8551H9.17421C8.92741 14.7502 8.78 13.619 8.78 12.5C8.78 11.381 8.92741 10.2498 9.17421 9.14488H15.9297C16.1127 10.192 16.22 11.3134 16.22 12.5C16.22 13.6866 16.1127 14.808 15.9297 15.8551ZM14.2504 24.0902C15.3122 22.5774 16.507 20.2909 17.1987 17.4151H23.1429C21.5184 20.9268 18.2073 23.4976 14.2504 24.0902ZM23.7329 15.8551H17.5117C17.682 14.7998 17.78 13.679 17.78 12.5C17.78 11.321 17.682 10.2002 17.5117 9.14488H23.7329C24.0497 10.207 24.22 11.333 24.22 12.5C24.22 13.667 24.0497 14.793 23.7329 15.8551ZM7.57886 15.8551H1.26708C0.950329 14.793 0.78 13.667 0.78 12.5C0.78 11.333 0.950329 10.207 1.26708 9.14488H7.57886C7.354 10.2411 7.22 11.3698 7.22 12.5C7.22 13.6302 7.354 14.7589 7.57886 15.8551ZM7.96281 7.58488H1.85711C3.51073 4.01025 6.91201 1.41048 10.9632 0.87986C10.3211 1.91285 9.60261 3.24265 8.9687 4.74714C8.59525 5.63346 8.24791 6.58806 7.96281 7.58488ZM10.4063 5.35287C11.1061 3.69195 11.9118 2.2647 12.5701 1.26168C13.5476 2.50325 14.8347 4.69159 15.5902 7.58488H9.59026C9.82857 6.81301 10.1066 6.06422 10.4063 5.35287ZM23.1429 7.58488H17.1987C16.507 4.70913 15.3122 2.42255 14.2504 0.909835C18.2073 1.50241 21.5184 4.07325 23.1429 7.58488Z" stroke="#7F0019" stroke-width="1.56"/>
</svg>
